<svg width="103" height="70" viewBox="0 0 103 70" fill="none" xmlns="http://www.w3.org/2000/svg">
<path fill-rule="evenodd" clip-rule="evenodd" d="M62.5252 0.638933C60.3041 2.16175 58.7129 3.58879 58.3147 4.41473C58.1199 4.81881 58.071 4.86073 57.8496 4.81298C55.3649 4.27712 52.2625 4.2053 49.8134 4.62678C46.5155 5.19442 43.4506 6.50819 40.9105 8.44337C40.1601 9.01495 39.1255 9.90556 39.0743 10.0239C39.0606 10.0556 39.521 9.98649 40.0974 9.87041C41.3084 9.62649 42.7355 9.51087 43.1262 9.62517C43.3911 9.70262 43.3812 9.71334 42.5954 10.1955C41.4802 10.88 39.9663 11.9507 38.5826 13.0337C35.3789 15.5412 33.0054 18.1986 31.7613 20.6708C31.3815 21.4255 30.9463 22.5301 31.0054 22.5892C31.0264 22.6102 31.4598 22.3867 31.9686 22.0927C32.4775 21.7987 33.1933 21.4216 33.5592 21.2547C34.218 20.9542 35.2522 20.6669 35.344 20.7588C35.3702 20.7851 35.2463 21.1259 35.0685 21.5163C34.1842 23.4582 33.829 25.4369 33.9129 27.9533C34.0028 30.6455 34.5297 32.6529 35.8304 35.257C37.5669 38.7342 39.5147 40.9377 42.7059 43.0354C46.422 45.4783 51.2295 47.1308 56.6074 47.814C57.4128 47.9162 58.1604 48 58.2687 48C58.4413 48 58.4973 47.8714 58.7232 46.9567C59.5276 43.6979 59.5116 40.8011 58.6765 38.5256C58.4015 37.7762 58.1621 37.3438 57.3546 36.1377C55.6836 33.6415 54.6773 31.162 54.2624 28.5192C54.0807 27.3607 54.1951 25.2945 54.4927 24.3602C54.7953 23.4103 55.301 22.5518 55.9434 21.8972C56.4156 21.4161 57.3472 20.7413 57.5393 20.7413C57.5872 20.7413 57.9238 21.114 58.2872 21.5694C60.2294 24.0035 62.7826 25.7748 64.9951 26.223L65.5606 26.3375L65.7648 27.0459C66.5213 29.6707 68.5265 30.3513 71.33 28.935C72.0239 28.5845 72.5033 28.0353 72.789 27.2637C72.9575 26.8085 72.995 26.5012 72.9998 25.5351C73.0074 23.993 72.8331 23.4739 71.7757 21.8892C71.2149 21.049 70.9225 20.5016 70.7418 19.9539C69.7293 16.8857 67.8523 12.5016 66.744 10.6159C66.2337 9.74774 65.9527 9.33745 65.5119 8.817C65.1402 8.37823 65.1068 8.25961 64.925 6.73651C64.7306 5.10907 64.7718 2.54779 65.0041 1.81886L65.1481 1.36636L64.8973 1.52578C64.4056 1.83813 63.9813 2.1766 63.4482 2.68173C62.9262 3.17643 62.9091 3.18461 62.9515 2.92067C62.9756 2.77028 63.0645 2.20311 63.1491 1.66029C63.2337 1.11746 63.3626 0.529334 63.4358 0.353375C63.5089 0.177509 63.5541 0.0188452 63.5361 0.000798075C63.5181 -0.017155 63.0632 0.270001 62.5252 0.638933Z" fill="#644C33"/>
<path d="M0.636 67V66.472C0.9 66.456 1.088 66.4 1.2 66.304C1.32 66.208 1.396 66.064 1.428 65.872C1.46 65.68 1.476 65.436 1.476 65.14V60.148C1.476 59.972 1.48 59.804 1.488 59.644C1.496 59.476 1.504 59.332 1.512 59.212C1.376 59.22 1.228 59.228 1.068 59.236C0.908 59.244 0.764 59.252 0.636 59.26V58.6H3.588V59.128C3.332 59.136 3.144 59.192 3.024 59.296C2.904 59.392 2.828 59.536 2.796 59.728C2.764 59.912 2.748 60.156 2.748 60.46V62.416H6.72V60.148C6.72 59.972 6.724 59.804 6.732 59.644C6.74 59.476 6.748 59.332 6.756 59.212C6.62 59.22 6.472 59.228 6.312 59.236C6.152 59.244 6.008 59.252 5.88 59.26V58.6H8.832V59.128C8.576 59.136 8.388 59.192 8.268 59.296C8.148 59.392 8.072 59.536 8.04 59.728C8.008 59.912 7.992 60.156 7.992 60.46V65.392C7.992 65.608 7.988 65.804 7.98 65.98C7.98 66.148 7.972 66.284 7.956 66.388C8.092 66.372 8.24 66.364 8.4 66.364C8.56 66.356 8.704 66.348 8.832 66.34V67H5.88V66.472C6.144 66.456 6.332 66.4 6.444 66.304C6.564 66.208 6.64 66.064 6.672 65.872C6.704 65.68 6.72 65.436 6.72 65.14V63.04L2.748 63.076V65.392C2.748 65.608 2.744 65.804 2.736 65.98C2.736 66.148 2.728 66.284 2.712 66.388C2.848 66.372 2.996 66.364 3.156 66.364C3.324 66.356 3.468 66.348 3.588 66.34V67H0.636ZM14.1036 67.192C13.3436 67.192 12.6916 67.064 12.1476 66.808C11.6116 66.552 11.1756 66.212 10.8396 65.788C10.5036 65.356 10.2556 64.88 10.0956 64.36C9.93556 63.84 9.85556 63.32 9.85556 62.8C9.85556 62.296 9.93956 61.788 10.1076 61.276C10.2836 60.756 10.5436 60.28 10.8876 59.848C11.2396 59.416 11.6756 59.068 12.1956 58.804C12.7236 58.54 13.3396 58.408 14.0436 58.408C14.7796 58.408 15.4116 58.54 15.9396 58.804C16.4756 59.068 16.9156 59.42 17.2596 59.86C17.6036 60.292 17.8596 60.764 18.0276 61.276C18.2036 61.788 18.2916 62.296 18.2916 62.8C18.2916 63.296 18.2036 63.804 18.0276 64.324C17.8596 64.836 17.5996 65.312 17.2476 65.752C16.9036 66.184 16.4716 66.532 15.9516 66.796C15.4316 67.06 14.8156 67.192 14.1036 67.192ZM14.1636 66.568C14.6276 66.568 15.0276 66.464 15.3636 66.256C15.7076 66.048 15.9876 65.772 16.2036 65.428C16.4276 65.076 16.5916 64.692 16.6956 64.276C16.7996 63.852 16.8516 63.432 16.8516 63.016C16.8516 62.504 16.7916 62.012 16.6716 61.54C16.5516 61.06 16.3676 60.632 16.1196 60.256C15.8796 59.872 15.5796 59.572 15.2196 59.356C14.8596 59.132 14.4436 59.02 13.9716 59.02C13.5076 59.02 13.1036 59.128 12.7596 59.344C12.4156 59.56 12.1356 59.844 11.9196 60.196C11.7036 60.54 11.5396 60.924 11.4276 61.348C11.3236 61.764 11.2716 62.184 11.2716 62.608C11.2716 63.024 11.3276 63.464 11.4396 63.928C11.5516 64.392 11.7236 64.824 11.9556 65.224C12.1876 65.624 12.4836 65.948 12.8436 66.196C13.2116 66.444 13.6516 66.568 14.1636 66.568ZM19.304 67V66.472C19.568 66.456 19.756 66.4 19.868 66.304C19.988 66.208 20.064 66.064 20.096 65.872C20.128 65.68 20.144 65.436 20.144 65.14V60.148C20.144 59.972 20.148 59.804 20.156 59.644C20.164 59.476 20.172 59.332 20.18 59.212C20.044 59.22 19.896 59.228 19.736 59.236C19.576 59.244 19.432 59.252 19.304 59.26V58.6C19.792 58.592 20.284 58.588 20.78 58.588C21.276 58.58 21.776 58.58 22.28 58.588C23.032 58.588 23.652 58.676 24.14 58.852C24.628 59.02 24.992 59.272 25.232 59.608C25.48 59.944 25.6 60.368 25.592 60.88C25.6 61.2 25.536 61.52 25.4 61.84C25.264 62.152 25.036 62.432 24.716 62.68C24.396 62.928 23.956 63.116 23.396 63.244C23.556 63.34 23.7 63.472 23.828 63.64C23.956 63.808 24.088 63.996 24.224 64.204L24.956 65.332C25.108 65.572 25.248 65.776 25.376 65.944C25.504 66.112 25.648 66.244 25.808 66.34C25.968 66.428 26.16 66.472 26.384 66.472V67H24.716C24.508 66.824 24.328 66.636 24.176 66.436C24.032 66.228 23.876 65.996 23.708 65.74L22.88 64.396C22.776 64.236 22.664 64.064 22.544 63.88C22.432 63.696 22.308 63.54 22.172 63.412C22.044 63.412 21.916 63.412 21.788 63.412C21.668 63.412 21.544 63.412 21.416 63.412V65.392C21.416 65.608 21.412 65.804 21.404 65.98C21.404 66.148 21.396 66.284 21.38 66.388C21.476 66.38 21.576 66.376 21.68 66.376C21.792 66.368 21.9 66.36 22.004 66.352C22.116 66.344 22.212 66.34 22.292 66.34V67H19.304ZM22.112 62.824C22.552 62.816 22.928 62.748 23.24 62.62C23.552 62.484 23.792 62.28 23.96 62.008C24.128 61.728 24.212 61.368 24.212 60.928C24.212 60.6 24.164 60.324 24.068 60.1C23.972 59.876 23.836 59.696 23.66 59.56C23.484 59.416 23.272 59.316 23.024 59.26C22.784 59.196 22.524 59.164 22.244 59.164C21.988 59.164 21.8 59.212 21.68 59.308C21.568 59.404 21.496 59.544 21.464 59.728C21.432 59.912 21.416 60.148 21.416 60.436V62.788C21.536 62.796 21.648 62.808 21.752 62.824C21.864 62.832 21.984 62.832 22.112 62.824ZM31.8375 61.192C31.7975 60.784 31.6935 60.416 31.5255 60.088C31.3575 59.76 31.1255 59.5 30.8295 59.308C30.5335 59.108 30.1655 59.012 29.7255 59.02C29.2775 59.02 28.9215 59.144 28.6575 59.392C28.3935 59.64 28.2615 59.94 28.2615 60.292C28.2615 60.604 28.3495 60.868 28.5255 61.084C28.7015 61.292 28.9375 61.48 29.2335 61.648C29.5375 61.816 29.8775 61.984 30.2535 62.152C30.5575 62.28 30.8655 62.424 31.1775 62.584C31.4895 62.744 31.7735 62.928 32.0295 63.136C32.2855 63.336 32.4895 63.58 32.6415 63.868C32.7935 64.148 32.8695 64.48 32.8695 64.864C32.8695 65.312 32.7535 65.712 32.5215 66.064C32.2895 66.416 31.9575 66.692 31.5255 66.892C31.1015 67.092 30.5855 67.192 29.9775 67.192C29.6335 67.192 29.2695 67.14 28.8855 67.036C28.5095 66.932 28.1655 66.784 27.8535 66.592L27.9135 67.096H27.1815L27.1335 64.456H27.7095C27.7735 65.152 28.0215 65.68 28.4535 66.04C28.8935 66.392 29.4175 66.568 30.0255 66.568C30.3295 66.568 30.6055 66.512 30.8535 66.4C31.1015 66.288 31.2975 66.128 31.4415 65.92C31.5855 65.712 31.6575 65.468 31.6575 65.188C31.6575 64.86 31.5575 64.584 31.3575 64.36C31.1655 64.136 30.9175 63.944 30.6135 63.784C30.3175 63.624 30.0055 63.472 29.6775 63.328C29.3495 63.184 29.0295 63.032 28.7175 62.872C28.4135 62.712 28.1375 62.528 27.8895 62.32C27.6415 62.112 27.4455 61.868 27.3015 61.588C27.1575 61.3 27.0855 60.964 27.0855 60.58C27.0855 60.356 27.1255 60.12 27.2055 59.872C27.2855 59.624 27.4215 59.388 27.6135 59.164C27.8055 58.94 28.0655 58.76 28.3935 58.624C28.7295 58.48 29.1495 58.408 29.6535 58.408C29.9575 58.408 30.2975 58.452 30.6735 58.54C31.0575 58.628 31.4055 58.784 31.7175 59.008L31.6695 58.504H32.3895V61.192H31.8375ZM38.1513 63.964C38.1513 63.62 38.0993 63.372 37.9953 63.22C37.8993 63.068 37.7513 62.976 37.5513 62.944C37.3513 62.904 37.1033 62.892 36.8073 62.908L36.1113 62.932V65.428C36.1113 65.644 36.1073 65.836 36.0993 66.004C36.0993 66.164 36.0913 66.296 36.0753 66.4L38.1393 66.376C38.4513 66.368 38.7313 66.312 38.9793 66.208C39.2273 66.096 39.4233 65.908 39.5673 65.644C39.7113 65.38 39.7833 65.02 39.7833 64.564H40.3113L40.2393 67H33.9993V66.472C34.2633 66.456 34.4513 66.4 34.5633 66.304C34.6833 66.208 34.7593 66.064 34.7913 65.872C34.8233 65.68 34.8393 65.436 34.8393 65.14V60.148C34.8393 59.972 34.8433 59.804 34.8513 59.644C34.8593 59.476 34.8673 59.332 34.8753 59.212C34.7393 59.22 34.5913 59.228 34.4313 59.236C34.2713 59.244 34.1273 59.252 33.9993 59.26V58.6H39.8553L39.9153 60.772H39.3873C39.3873 60.316 39.3113 59.968 39.1593 59.728C39.0153 59.488 38.8233 59.328 38.5833 59.248C38.3513 59.168 38.0993 59.132 37.8273 59.14L36.9873 59.164C36.7393 59.164 36.5513 59.208 36.4233 59.296C36.2953 59.376 36.2113 59.512 36.1713 59.704C36.1313 59.888 36.1113 60.14 36.1113 60.46V62.344H38.0913L38.0193 61.312H38.6793V63.964H38.1513ZM44.6282 67V66.472C44.8922 66.456 45.0802 66.4 45.1922 66.304C45.3122 66.208 45.3882 66.064 45.4202 65.872C45.4522 65.68 45.4682 65.436 45.4682 65.14V60.148C45.4682 59.972 45.4722 59.804 45.4802 59.644C45.4882 59.476 45.4962 59.332 45.5042 59.212C45.3682 59.22 45.2202 59.228 45.0602 59.236C44.9002 59.244 44.7562 59.252 44.6282 59.26V58.6H50.3402L50.4122 60.772H49.8842C49.8842 60.316 49.8082 59.968 49.6562 59.728C49.5042 59.488 49.3082 59.328 49.0682 59.248C48.8282 59.168 48.5682 59.132 48.2882 59.14L47.5682 59.164C47.3122 59.164 47.1242 59.216 47.0042 59.32C46.8922 59.424 46.8202 59.572 46.7882 59.764C46.7562 59.956 46.7402 60.2 46.7402 60.496V62.56L48.5522 62.572L48.4802 61.528H49.1402V64.192H48.6122C48.6122 63.84 48.5602 63.588 48.4562 63.436C48.3602 63.284 48.2122 63.192 48.0122 63.16C47.8122 63.128 47.5642 63.116 47.2682 63.124L46.7402 63.148V65.392C46.7402 65.608 46.7362 65.804 46.7282 65.98C46.7282 66.148 46.7202 66.284 46.7042 66.388C46.8242 66.38 46.9522 66.376 47.0882 66.376C47.2322 66.368 47.3722 66.36 47.5082 66.352C47.6442 66.344 47.7682 66.34 47.8802 66.34V67H44.6282ZM51.2962 67V66.472C51.5602 66.456 51.7482 66.4 51.8602 66.304C51.9802 66.208 52.0562 66.064 52.0882 65.872C52.1202 65.68 52.1362 65.436 52.1362 65.14V60.148C52.1362 59.972 52.1402 59.804 52.1482 59.644C52.1562 59.476 52.1642 59.332 52.1722 59.212C52.0362 59.22 51.8882 59.228 51.7282 59.236C51.5682 59.244 51.4242 59.252 51.2962 59.26V58.6C51.7842 58.592 52.2762 58.588 52.7722 58.588C53.2682 58.58 53.7682 58.58 54.2722 58.588C55.0242 58.588 55.6442 58.676 56.1322 58.852C56.6202 59.02 56.9842 59.272 57.2242 59.608C57.4722 59.944 57.5922 60.368 57.5842 60.88C57.5922 61.2 57.5282 61.52 57.3922 61.84C57.2562 62.152 57.0282 62.432 56.7082 62.68C56.3882 62.928 55.9482 63.116 55.3882 63.244C55.5482 63.34 55.6922 63.472 55.8202 63.64C55.9482 63.808 56.0802 63.996 56.2162 64.204L56.9482 65.332C57.1002 65.572 57.2402 65.776 57.3682 65.944C57.4962 66.112 57.6402 66.244 57.8002 66.34C57.9602 66.428 58.1522 66.472 58.3762 66.472V67H56.7082C56.5002 66.824 56.3202 66.636 56.1682 66.436C56.0242 66.228 55.8682 65.996 55.7002 65.74L54.8722 64.396C54.7682 64.236 54.6562 64.064 54.5362 63.88C54.4242 63.696 54.3002 63.54 54.1642 63.412C54.0362 63.412 53.9082 63.412 53.7802 63.412C53.6602 63.412 53.5362 63.412 53.4082 63.412V65.392C53.4082 65.608 53.4042 65.804 53.3962 65.98C53.3962 66.148 53.3882 66.284 53.3722 66.388C53.4682 66.38 53.5682 66.376 53.6722 66.376C53.7842 66.368 53.8922 66.36 53.9962 66.352C54.1082 66.344 54.2042 66.34 54.2842 66.34V67H51.2962ZM54.1042 62.824C54.5442 62.816 54.9202 62.748 55.2322 62.62C55.5442 62.484 55.7842 62.28 55.9522 62.008C56.1202 61.728 56.2042 61.368 56.2042 60.928C56.2042 60.6 56.1562 60.324 56.0602 60.1C55.9642 59.876 55.8282 59.696 55.6522 59.56C55.4762 59.416 55.2642 59.316 55.0162 59.26C54.7762 59.196 54.5162 59.164 54.2362 59.164C53.9802 59.164 53.7922 59.212 53.6722 59.308C53.5602 59.404 53.4882 59.544 53.4562 59.728C53.4242 59.912 53.4082 60.148 53.4082 60.436V62.788C53.5282 62.796 53.6402 62.808 53.7442 62.824C53.8562 62.832 53.9762 62.832 54.1042 62.824ZM62.0177 59.128C61.7617 59.136 61.5737 59.192 61.4537 59.296C61.3337 59.392 61.2577 59.536 61.2257 59.728C61.1937 59.912 61.1777 60.156 61.1777 60.46V65.392C61.1777 65.608 61.1737 65.804 61.1657 65.98C61.1657 66.148 61.1577 66.284 61.1417 66.388C61.2777 66.372 61.4257 66.364 61.5857 66.364C61.7537 66.356 61.8977 66.348 62.0177 66.34V67H59.0657V66.472C59.3297 66.456 59.5177 66.4 59.6297 66.304C59.7497 66.208 59.8257 66.064 59.8577 65.872C59.8897 65.68 59.9057 65.436 59.9057 65.14V60.148C59.9057 59.972 59.9097 59.804 59.9177 59.644C59.9257 59.476 59.9337 59.332 59.9417 59.212C59.8057 59.22 59.6577 59.228 59.4977 59.236C59.3377 59.244 59.1937 59.252 59.0657 59.26V58.6H62.0177V59.128ZM67.4364 63.964C67.4364 63.62 67.3844 63.372 67.2804 63.22C67.1844 63.068 67.0364 62.976 66.8364 62.944C66.6364 62.904 66.3884 62.892 66.0924 62.908L65.3964 62.932V65.428C65.3964 65.644 65.3924 65.836 65.3844 66.004C65.3844 66.164 65.3764 66.296 65.3604 66.4L67.4244 66.376C67.7364 66.368 68.0164 66.312 68.2644 66.208C68.5124 66.096 68.7084 65.908 68.8524 65.644C68.9964 65.38 69.0684 65.02 69.0684 64.564H69.5964L69.5244 67H63.2844V66.472C63.5484 66.456 63.7364 66.4 63.8484 66.304C63.9684 66.208 64.0444 66.064 64.0764 65.872C64.1084 65.68 64.1244 65.436 64.1244 65.14V60.148C64.1244 59.972 64.1284 59.804 64.1364 59.644C64.1444 59.476 64.1524 59.332 64.1604 59.212C64.0244 59.22 63.8764 59.228 63.7164 59.236C63.5564 59.244 63.4124 59.252 63.2844 59.26V58.6H69.1404L69.2004 60.772H68.6724C68.6724 60.316 68.5964 59.968 68.4444 59.728C68.3004 59.488 68.1084 59.328 67.8684 59.248C67.6364 59.168 67.3844 59.132 67.1124 59.14L66.2724 59.164C66.0244 59.164 65.8364 59.208 65.7084 59.296C65.5804 59.376 65.4964 59.512 65.4564 59.704C65.4164 59.888 65.3964 60.14 65.3964 60.46V62.344H67.3764L67.3044 61.312H67.9644V63.964H67.4364ZM77.265 67.168L72.801 61.24C72.713 61.136 72.629 61.028 72.549 60.916C72.469 60.804 72.385 60.688 72.297 60.568H72.285L72.321 65.236C72.321 65.436 72.317 65.636 72.309 65.836C72.309 66.036 72.301 66.22 72.285 66.388C72.421 66.372 72.569 66.364 72.729 66.364C72.897 66.356 73.041 66.348 73.161 66.34V67H70.785V66.472C71.009 66.472 71.177 66.428 71.289 66.34C71.409 66.252 71.489 66.136 71.529 65.992C71.577 65.848 71.601 65.68 71.601 65.488V60.112C71.601 59.952 71.601 59.792 71.601 59.632C71.601 59.472 71.605 59.332 71.613 59.212C71.485 59.22 71.341 59.228 71.181 59.236C71.029 59.244 70.893 59.252 70.773 59.26V58.6H72.357L76.581 64.156C76.717 64.332 76.837 64.496 76.941 64.648C77.053 64.8 77.161 64.944 77.265 65.08H77.277L77.289 60.148C77.289 59.972 77.293 59.804 77.301 59.644C77.309 59.476 77.317 59.332 77.325 59.212C77.181 59.22 77.029 59.228 76.869 59.236C76.709 59.244 76.569 59.252 76.449 59.26V58.6H78.825V59.128C78.569 59.136 78.381 59.192 78.261 59.296C78.149 59.392 78.077 59.536 78.045 59.728C78.021 59.912 78.009 60.156 78.009 60.46L77.997 67.168H77.265ZM79.9485 66.472C80.2125 66.456 80.4005 66.4 80.5125 66.304C80.6325 66.208 80.7085 66.064 80.7405 65.872C80.7725 65.68 80.7885 65.436 80.7885 65.14V60.148C80.7885 59.972 80.7925 59.804 80.8005 59.644C80.8085 59.476 80.8165 59.332 80.8245 59.212C80.6885 59.22 80.5405 59.228 80.3805 59.236C80.2205 59.244 80.0765 59.252 79.9485 59.26V58.6L83.0085 58.588C83.7525 58.588 84.4205 58.684 85.0125 58.876C85.6045 59.068 86.1085 59.348 86.5245 59.716C86.9405 60.076 87.2565 60.516 87.4725 61.036C87.6885 61.556 87.7965 62.136 87.7965 62.776C87.7965 63.312 87.7045 63.832 87.5205 64.336C87.3365 64.84 87.0525 65.292 86.6685 65.692C86.2925 66.084 85.8165 66.4 85.2405 66.64C84.6645 66.88 83.9845 67 83.2005 67H79.9485V66.472ZM82.0605 65.404C82.0605 65.62 82.0565 65.812 82.0485 65.98C82.0485 66.148 82.0405 66.284 82.0245 66.388C82.1925 66.388 82.3605 66.392 82.5285 66.4C82.6965 66.4 82.8445 66.4 82.9725 66.4C83.1085 66.4 83.2045 66.4 83.2605 66.4C83.7565 66.4 84.1965 66.308 84.5805 66.124C84.9645 65.94 85.2885 65.684 85.5525 65.356C85.8245 65.028 86.0285 64.648 86.1645 64.216C86.3085 63.784 86.3805 63.324 86.3805 62.836C86.3805 62.052 86.2525 61.388 85.9965 60.844C85.7405 60.3 85.3525 59.884 84.8325 59.596C84.3205 59.308 83.6805 59.16 82.9125 59.152C82.6485 59.152 82.4565 59.2 82.3365 59.296C82.2165 59.384 82.1405 59.524 82.1085 59.716C82.0765 59.908 82.0605 60.152 82.0605 60.448V65.404ZM88.8196 67V66.472C89.0836 66.456 89.2716 66.4 89.3836 66.304C89.5036 66.208 89.5796 66.064 89.6116 65.872C89.6436 65.68 89.6596 65.436 89.6596 65.14V60.148C89.6596 59.972 89.6636 59.804 89.6716 59.644C89.6796 59.476 89.6876 59.332 89.6956 59.212C89.5596 59.22 89.4116 59.228 89.2516 59.236C89.0916 59.244 88.9476 59.252 88.8196 59.26V58.6H91.7716V59.128C91.5156 59.136 91.3276 59.192 91.2076 59.296C91.0876 59.392 91.0116 59.536 90.9796 59.728C90.9476 59.912 90.9316 60.156 90.9316 60.46V65.428C90.9316 65.644 90.9276 65.836 90.9196 66.004C90.9196 66.164 90.9116 66.296 90.8956 66.4L92.9236 66.376C93.4196 66.368 93.7996 66.208 94.0636 65.896C94.3276 65.576 94.4596 65.072 94.4596 64.384H94.9996L94.9276 67H88.8196ZM96.8211 67V66.472C97.0851 66.456 97.2731 66.4 97.3851 66.304C97.4971 66.208 97.5691 66.064 97.6011 65.872C97.6331 65.672 97.6491 65.428 97.6491 65.14L97.6611 63.88L95.5251 60.52C95.3571 60.24 95.2211 59.992 95.1171 59.776C95.0211 59.56 94.9651 59.38 94.9491 59.236C94.8211 59.244 94.7011 59.248 94.5891 59.248C94.4771 59.248 94.3651 59.252 94.2531 59.26V58.6H97.4931V59.128C97.1731 59.12 96.9371 59.164 96.7851 59.26C96.6411 59.356 96.5771 59.496 96.5931 59.68C96.6091 59.856 96.6891 60.064 96.8331 60.304L97.7811 61.816C97.8451 61.912 97.9171 62.024 97.9971 62.152C98.0771 62.28 98.1571 62.412 98.2371 62.548C98.3251 62.676 98.4051 62.808 98.4771 62.944H98.5011C98.5731 62.792 98.6531 62.632 98.7411 62.464C98.8371 62.288 98.9331 62.096 99.0291 61.888L99.9171 60.196C99.9571 60.116 100.009 60.016 100.073 59.896C100.137 59.776 100.205 59.656 100.277 59.536C100.357 59.408 100.437 59.304 100.517 59.224C100.373 59.232 100.213 59.24 100.037 59.248C99.8691 59.248 99.7171 59.252 99.5811 59.26V58.6H102.089V59.128C101.737 59.16 101.441 59.292 101.201 59.524C100.969 59.748 100.721 60.104 100.457 60.592C100.193 61.096 99.9331 61.592 99.6771 62.08C99.4211 62.56 99.1731 63.032 98.9331 63.496C98.9331 63.624 98.9291 63.788 98.9211 63.988C98.9211 64.188 98.9211 64.388 98.9211 64.588C98.9211 64.788 98.9211 64.964 98.9211 65.116C98.9211 65.26 98.9211 65.352 98.9211 65.392C98.9211 65.608 98.9171 65.804 98.9091 65.98C98.9091 66.148 98.9011 66.284 98.8851 66.388C99.0451 66.372 99.2131 66.364 99.3891 66.364C99.5731 66.356 99.7331 66.348 99.8691 66.34V67H96.8211Z" fill="#2E251C"/>
</svg>
