<svg width="42" height="48" viewBox="0 0 42 48" fill="none" xmlns="http://www.w3.org/2000/svg">
<path fill-rule="evenodd" clip-rule="evenodd" d="M31.5252 0.638933C29.3041 2.16175 27.7129 3.58879 27.3147 4.41473C27.1199 4.81881 27.071 4.86073 26.8496 4.81298C24.3649 4.27712 21.2625 4.2053 18.8134 4.62678C15.5155 5.19442 12.4506 6.50819 9.9105 8.44337C9.16015 9.01495 8.12549 9.90556 8.0743 10.0239C8.06059 10.0556 8.521 9.98649 9.09741 9.87041C10.3084 9.62649 11.7355 9.51087 12.1262 9.62517C12.3911 9.70262 12.3812 9.71334 11.5954 10.1955C10.4802 10.88 8.96629 11.9507 7.58261 13.0337C4.37888 15.5412 2.00543 18.1986 0.761317 20.6708C0.38149 21.4255 -0.0536578 22.5301 0.00542007 22.5892C0.026365 22.6102 0.459822 22.3867 0.968606 22.0927C1.47748 21.7987 2.19328 21.4216 2.5592 21.2547C3.21798 20.9542 4.25217 20.6669 4.34403 20.7588C4.37024 20.7851 4.24626 21.1259 4.06846 21.5163C3.18417 23.4582 2.82895 25.4369 2.91292 27.9533C3.0028 30.6455 3.52971 32.6529 4.83037 35.257C6.56692 38.7342 8.51471 40.9377 11.7059 43.0354C15.422 45.4783 20.2295 47.1308 25.6074 47.814C26.4128 47.9162 27.1604 48 27.2687 48C27.4413 48 27.4973 47.8714 27.7232 46.9566C28.5276 43.6979 28.5116 40.8011 27.6765 38.5256C27.4015 37.7762 27.1621 37.3438 26.3546 36.1377C24.6836 33.6415 23.6773 31.162 23.2624 28.5192C23.0807 27.3607 23.1951 25.2945 23.4927 24.3602C23.7953 23.4103 24.301 22.5518 24.9434 21.8972C25.4156 21.4161 26.3472 20.7413 26.5393 20.7413C26.5872 20.7413 26.9238 21.114 27.2872 21.5694C29.2294 24.0035 31.7826 25.7748 33.9951 26.223L34.5606 26.3375L34.7648 27.0459C35.5213 29.6707 37.5265 30.3513 40.33 28.935C41.0239 28.5845 41.5033 28.0353 41.789 27.2637C41.9575 26.8085 41.995 26.5012 41.9998 25.5351C42.0074 23.993 41.8331 23.4739 40.7757 21.8892C40.2149 21.049 39.9225 20.5016 39.7418 19.9539C38.7293 16.8857 36.8523 12.5016 35.744 10.6159C35.2337 9.74774 34.9527 9.33745 34.5119 8.817C34.1402 8.37823 34.1068 8.25961 33.925 6.73651C33.7306 5.10907 33.7718 2.54779 34.0041 1.81886L34.1481 1.36636L33.8973 1.52578C33.4056 1.83813 32.9813 2.1766 32.4482 2.68173C31.9262 3.17643 31.9091 3.18461 31.9515 2.92067C31.9756 2.77028 32.0645 2.20311 32.1491 1.66029C32.2337 1.11746 32.3626 0.529334 32.4358 0.353375C32.5089 0.177509 32.5541 0.0188452 32.5361 0.000798075C32.5181 -0.017155 32.0632 0.270001 31.5252 0.638933Z" fill="#644C33"/>
</svg>
